<svg width="216" height="257" viewBox="0 0 216 257" fill="none" xmlns="http://www.w3.org/2000/svg">
<path fill-rule="evenodd" clip-rule="evenodd" d="M46.5621 253.333C55.0424 260.896 67.5109 254.963 73.5477 245.336C81.6969 232.341 94.3244 224 108.5 224C122.494 224 134.979 232.128 143.136 244.838C149.286 254.419 161.838 260.252 170.26 252.592C197.931 227.423 216 185.927 216 139C216 135 212.656 131.916 208.681 131.466C197.713 130.225 188.113 125.677 184.265 117.43C179.247 106.676 183.8 94.2333 193.912 83.665C199.264 78.071 201.979 69.9674 198.474 63.0642C179.195 25.0919 145.874 0 108 0C48.3532 0 0 62.2324 0 139C0 186.39 18.4269 228.242 46.5621 253.333Z" fill="#CBB6FF"/>
</svg>
