<svg width="16" height="17" viewBox="0 0 16 17" fill="none" xmlns="http://www.w3.org/2000/svg">
<path d="M3.64977 16.5498H0.384461V6.03443H3.64977V16.5498ZM2.01515 4.60005C0.971148 4.60005 0.124023 3.73493 0.124023 2.69093C0.124023 2.18937 0.323266 1.70836 0.677921 1.3537C1.03258 0.999048 1.51359 0.799805 2.01515 0.799805C2.51671 0.799805 2.99772 0.999048 3.35238 1.3537C3.70703 1.70836 3.90627 2.18937 3.90627 2.69093C3.90627 3.73493 3.05915 4.60005 2.01515 4.60005ZM15.8706 16.5498H12.6126V11.4311C12.6126 10.211 12.5879 8.64668 10.915 8.64668C9.2174 8.64668 8.95696 9.97193 8.95696 11.3433V16.5498H5.69502V6.03443H8.82646V7.4688H8.87202C9.30796 6.64249 10.3728 5.77062 11.9613 5.77062C15.266 5.77062 15.8735 7.94693 15.8735 10.7735V16.5498H15.8706Z" fill="#AE97E8"/>
</svg>
