<svg width="581" height="343" viewBox="0 0 581 343" fill="none" xmlns="http://www.w3.org/2000/svg">
<g filter="url(#filter0_b_2532_9011)">
<path fillRule="evenodd" clipRule="evenodd" d="M337.273 0.533201C315.182 0.533201 297.273 18.4418 297.273 40.5332L297.273 76.5332C297.273 80.3992 294.139 83.5332 290.273 83.5332C286.407 83.5332 283.273 80.3992 283.273 76.5332L283.273 40.5332C283.273 18.4418 265.365 0.533201 243.273 0.533201L40.2734 0.533201C18.1821 0.533201 0.273437 18.4418 0.273436 40.5332L0.273424 302.533C0.273423 324.625 18.1821 342.533 40.2734 342.533L103.456 342.533C110.362 342.533 116.094 337.435 118.248 330.874C127.132 303.818 151.165 284.533 179.773 284.533C208.238 284.533 232.879 303.624 242.862 330.466C245.335 337.114 251.706 342.285 258.28 339.623C272.936 333.687 283.273 319.318 283.273 302.533L283.273 266.533C283.273 262.667 286.407 259.533 290.273 259.533C294.139 259.533 297.273 262.667 297.273 266.533L297.273 302.533C297.273 324.625 315.182 342.533 337.273 342.533L540.273 342.533C562.365 342.533 580.273 324.625 580.273 302.533L580.273 40.5332C580.273 18.4418 562.365 0.533202 540.273 0.533201L337.273 0.533201Z" fill="#CBB6FF"/>
</g>
<defs>
<filter id="filter0_b_2532_9011" x="-99.7266" y="-99.4668" width="780" height="542" filterUnits="userSpaceOnUse" color-interpolation-filters="sRGB">
<feFlood flood-opacity="0" result="BackgroundImageFix"/>
<feGaussianBlur in="BackgroundImageFix" stdDeviation="50"/>
<feComposite in2="SourceAlpha" operator="in" result="effect1_backgroundBlur_2532_9011"/>
<feBlend mode="normal" in="SourceGraphic" in2="effect1_backgroundBlur_2532_9011" result="shape"/>
</filter>
</defs>
</svg>
